<svg xmlns="http://www.w3.org/2000/svg" width="612" height="612"><path fill="#4e4d4e" fill-rule="evenodd" clip-rule="evenodd" d="M1 0v612h611V0H1zm338.726 400.335c-26.323 0-51.076-14.145-59.488-30.34 0 0-14.144 56.076-17.096 66.957-10.545 38.249-41.597 76.498-43.961 79.595-1.653 2.218-5.398 1.486-5.816-1.38-.648-4.918-8.58-53.126.733-92.443L245.4 290.065s-7.762-15.526-7.762-38.5c0-36.115 20.924-63.024 46.995-63.024 22.158 0 32.788 16.594 32.788 36.554 0 22.222-14.144 55.575-21.49 86.374-6.067 25.842 12.91 46.85 38.396 46.85 46.179 0 77.167-59.173 77.167-129.311 0-53.377-35.883-93.343-101.271-93.343-73.799 0-119.811 55.093-119.811 116.547 0 21.259 6.277 36.22 16.091 47.748 4.5 5.399 5.064 7.512 3.515 13.643-1.233 4.498-3.85 15.211-5.064 19.542-1.548 6.133-6.633 8.328-12.177 6.048-33.919-13.893-49.779-51.097-49.779-93.029 0-69.129 58.191-152.01 173.922-152.01 92.945 0 154.086 67.27 154.086 139.438-.002 95.455-53.046 166.743-131.28 166.743z"/></svg>