<svg xmlns="http://www.w3.org/2000/svg" width="612" height="612"><path fill="#4e4d4e" fill-rule="evenodd" clip-rule="evenodd" d="M1 0v612h611V0H1zm458.796 338.587c14.049 13.706 28.905 26.61 41.515 41.763 5.571 6.695 10.841 13.602 14.857 21.36 5.702 11.115.534 23.294-9.395 23.965l-61.705-.026c-15.927 1.309-28.618-5.113-39.322-16.009-8.512-8.676-16.468-17.962-24.685-26.933-3.344-3.693-6.88-7.147-11.082-9.902-8.43-5.462-15.741-3.804-20.56 4.976-4.899 8.943-6.051 18.872-6.503 28.831-.671 14.536-5.058 18.339-19.648 19.038-31.216 1.446-60.82-3.297-88.315-19.011-24.281-13.864-43.071-33.464-59.43-55.626-31.88-43.209-56.297-90.645-78.22-139.446-4.955-10.998-1.336-16.893 10.759-17.105 20.163-.398 40.317-.35 60.451-.027 8.19.137 13.624 4.818 16.756 12.555 10.896 26.774 24.225 52.255 40.955 75.897 4.475 6.291 9.025 12.555 15.473 16.996 7.148 4.927 12.61 3.317 15.981-4.688 2.145-5.084 3.084-10.492 3.536-15.927 1.603-18.607 1.795-37.233-.966-55.784-1.714-11.596-8.271-19.093-19.833-21.286-5.894-1.124-5.01-3.29-2.172-6.668 4.983-5.804 9.67-9.423 18.956-9.423h69.737c10.999 2.145 13.466 7.099 14.96 18.154l.055 77.501c-.13 4.283 2.146 16.968 9.827 19.778 6.154 2.035 10.252-2.92 13.946-6.826 16.701-17.723 28.618-38.679 39.267-60.362 4.715-9.532 8.786-19.435 12.747-29.345 2.919-7.333 7.47-10.944 15.741-10.814l67.141.082c1.979 0 4.016 0 5.969.321 11.293 1.953 14.4 6.826 10.89 17.88-5.482 17.317-16.222 31.777-26.686 46.258-11.22 15.502-23.156 30.461-34.292 46.045-10.171 14.27-9.369 21.444 3.295 33.808z"/></svg>